<?xml version="1.0" standalone="no"?>
<!DOCTYPE svg PUBLIC "-//W3C//DTD SVG 20010904//EN"
 "http://www.w3.org/TR/2001/REC-SVG-20010904/DTD/svg10.dtd">
<svg version="1.0" xmlns="http://www.w3.org/2000/svg"
 width="700.000000pt" height="700.000000pt" viewBox="0 0 700.000000 700.000000"
 preserveAspectRatio="xMidYMid meet">
<metadata>
Created by potrace 1.14, written by Peter Selinger 2001-2017
</metadata>
<g transform="translate(0.000000,700.000000) scale(0.100000,-0.100000)"
fill="#000000" stroke="none">
<path d="M3278 6996 c-1 -2 -39 -6 -83 -10 -490 -38 -1003 -200 -1450 -459
-102 -59 -288 -180 -305 -197 -3 -3 -43 -34 -90 -70 -90 -69 -111 -86 -198
-165 -352 -320 -662 -745 -837 -1145 -25 -58 -50 -114 -55 -125 -45 -93 -150
-427 -176 -560 -2 -11 -10 -54 -19 -95 -22 -115 -30 -160 -41 -255 -26 -230
-26 -667 1 -826 2 -13 6 -46 9 -74 21 -182 109 -547 165 -680 5 -11 25 -65 46
-120 63 -166 249 -531 312 -610 4 -6 34 -49 65 -95 53 -79 217 -289 263 -336
11 -12 46 -49 78 -83 31 -33 59 -61 62 -61 2 0 249 245 548 545 299 300 546
545 549 545 5 0 34 -24 88 -74 247 -228 623 -406 980 -465 169 -27 469 -31
560 -6 8 2 38 6 65 10 216 26 553 158 760 297 334 224 585 535 735 912 38 97
87 269 101 356 5 36 12 76 14 90 8 48 15 130 19 233 5 117 28 192 80 260 194
255 594 180 682 -128 14 -50 16 -86 11 -220 -4 -88 -9 -171 -12 -185 -3 -14
-8 -45 -11 -70 -32 -251 -113 -532 -222 -765 -69 -148 -64 -138 -142 -268
-154 -256 -372 -512 -580 -681 -112 -91 -248 -189 -313 -227 -32 -19 -80 -46
-105 -62 -89 -52 -277 -138 -399 -182 -137 -50 -405 -120 -498 -130 -33 -4
-62 -9 -65 -10 -5 -3 -60 -9 -180 -21 -63 -6 -324 -5 -390 1 -120 12 -241 28
-300 40 -14 3 -38 8 -55 11 -173 31 -454 128 -639 220 -48 24 -92 44 -97 44
-5 0 -135 -126 -290 -281 -306 -306 -291 -284 -219 -321 14 -6 32 -17 40 -24
30 -23 268 -142 385 -192 223 -95 410 -154 660 -208 51 -11 245 -44 285 -48
282 -32 696 -28 917 8 21 4 54 9 73 11 19 3 46 7 60 10 14 2 39 7 55 10 339
64 740 212 1039 384 49 28 91 51 93 51 10 0 268 180 353 247 151 118 324 281
450 422 36 41 70 79 76 85 65 68 263 353 352 508 46 79 172 331 172 342 0 3
11 29 24 58 57 127 151 421 182 573 17 81 54 301 59 350 4 33 9 71 11 85 9 46
11 524 4 605 -15 153 -21 210 -25 225 -2 8 -7 35 -10 60 -17 129 -80 384 -136
552 -348 1037 -1165 1855 -2204 2206 -167 56 -419 119 -555 137 -19 3 -46 7
-60 10 -13 2 -52 7 -86 11 -33 3 -74 8 -90 10 -32 5 -540 14 -546 10z m395
-815 c26 -12 70 -45 97 -71 132 -127 155 -330 56 -485 -75 -117 -182 -174
-339 -180 -469 -19 -826 -142 -1172 -404 -55 -42 -94 -76 -179 -156 -123 -117
-274 -322 -364 -495 -76 -146 -155 -370 -178 -505 -2 -16 -7 -37 -9 -45 -12
-44 -24 -173 -30 -315 -5 -134 -32 -209 -103 -287 -148 -164 -407 -168 -563
-7 -52 53 -93 131 -104 194 -7 43 -7 223 -1 265 3 14 7 59 10 100 3 41 8 84
10 95 2 11 10 54 17 95 7 41 13 77 14 80 1 4 26 115 30 130 15 65 82 260 130
375 231 558 684 1050 1235 1343 247 131 589 246 820 277 25 3 70 10 100 16 30
5 120 12 200 15 80 4 146 7 148 9 8 7 134 -24 175 -44z m17 -1530 c500 -82
898 -491 966 -992 94 -702 -449 -1324 -1156 -1323 -246 0 -442 60 -650 199
-365 243 -559 667 -507 1110 9 77 15 109 26 137 5 13 9 25 9 28 1 53 89 245
157 344 187 274 500 466 820 504 87 10 249 7 335 -7z"/>
<path d="M3439 3885 c-3 -2 -17 -6 -33 -9 -44 -8 -129 -52 -163 -85 -81 -77
-123 -167 -129 -272 -17 -353 409 -542 659 -293 236 237 81 644 -253 660 -42
2 -79 2 -81 -1z"/>
</g>
</svg>
